<svg viewBox="0 0 140 32" fill="none" xmlns="http://www.w3.org/2000/svg">
  <path fill-rule="evenodd" clip-rule="evenodd"
    d="M132.565 13.0029L133.726 12.4942C134.928 11.9738 136.19 11.4569 137.48 11.0353L138.998 10.5265C139.174 10.4638 139.521 10.437 139.625 10.3H139.659C139.503 9.7192 139.406 9.04085 139.226 8.45659C138.812 7.11033 138.14 5.91509 137.076 5.21002C136.419 4.77443 135.283 4.53515 134.389 4.91614C133.596 5.25532 132.783 5.99175 132.114 6.49935C131.402 7.04064 130.703 7.60284 129.987 8.12554L129.271 8.67961H129.225C129.21 8.52394 129.221 8.36679 129.259 8.21498C129.335 7.76197 129.32 7.31709 129.396 6.89196L129.487 6.0324C129.659 5.04275 129.764 4.04729 129.987 3.09133L130.306 1.58129C130.351 1.41054 130.45 1.15384 130.431 0.981928C129.721 0.631948 128.977 0.355212 128.211 0.156057C127.712 0.0317694 127.055 -0.0541862 126.493 0.0399004C125.274 0.250143 124.375 0.431347 123.751 1.22702C123.484 1.56664 123.286 1.95436 123.167 2.36883C123.008 2.9229 123.099 3.69069 123.201 4.23547L123.36 5.49112L123.679 7.84328L123.849 8.99671C123.657 8.97464 123.487 8.7644 123.349 8.66915C122.999 8.41942 122.648 8.16387 122.298 7.91181C121.194 7.10685 120.195 6.20896 119.135 5.36683L117.747 4.13441L117.679 4.12279L116.565 4.91498C115.969 5.3796 115.479 6.01846 115.085 6.67939C114.864 7.07564 114.692 7.49732 114.574 7.93504C114.447 8.33699 114.408 8.76084 114.457 9.17908C114.521 9.55542 114.538 9.82374 114.661 10.1176C115.27 11.5649 117.206 12.069 118.665 12.6847L120.428 13.3967L121.315 13.7452V13.7789C121.209 13.9078 120.954 13.9577 120.792 14.0274C120.358 14.2133 119.923 14.4073 119.472 14.5931C118.654 14.93 117.801 15.275 116.957 15.5886L115.672 16.0184L113.988 16.5991L114.272 17.8432C114.684 19.5553 115.352 20.9318 116.673 21.7344C117.281 22.1026 118.317 22.3686 119.164 22.0283C119.778 21.782 120.257 21.3523 120.757 20.9829L123.339 18.992L124.295 18.223C124.359 18.2811 124.318 18.5645 124.295 18.7097L124.146 20.1802C123.934 21.3255 123.853 22.472 123.611 23.5732L123.144 25.9253C123.296 26.0415 123.512 26.0961 123.701 26.1739C124.216 26.408 124.748 26.6021 125.294 26.7547C125.824 26.8871 126.592 26.987 127.217 26.8708C127.761 26.7651 128.209 26.7152 128.65 26.5317C129.687 26.1019 130.708 24.9647 130.425 23.3199L130.322 22.4383L130.088 20.617L129.713 18.0383V18.0162C129.912 18.0557 130.086 18.2602 130.237 18.3647C130.647 18.6539 131.043 18.9536 131.443 19.2463C132.983 20.366 134.454 21.5787 135.845 22.8774C136.065 22.8437 136.802 22.1665 137.005 22.0062C138.046 21.185 139.603 19.1174 138.984 17.1277C138.878 16.7977 138.716 16.4879 138.507 16.2112C138.073 15.6362 137.365 15.3702 136.652 15.0694L133.41 13.7127L132.159 13.2039V13.1923C132.284 13.1092 132.421 13.0454 132.565 13.0029Z"
    fill="#982A86"></path>
  <path fill-rule="evenodd" clip-rule="evenodd"
    d="M32.9948 6.71191C25.9986 6.71191 22.4187 10.1664 22.4187 17.123V31.4939H28.6449V15.879C28.6917 13.3456 30.1638 12.1016 32.9025 12.1016C35.6411 12.1016 37.1086 13.3456 37.2535 15.879V28.4087C37.2535 30.3439 38.2723 31.3568 40.3111 31.495H43.3745V17.123C43.4213 10.1664 39.9921 6.71191 32.9948 6.71191ZM55.3374 6.71191C49.6849 6.71191 46.4871 8.91889 45.7463 13.4374H51.9095C52.2343 12.2863 53.4389 11.7334 55.6167 11.7334C58.1649 11.7334 59.4629 12.4245 59.602 13.8067C59.602 15.1425 58.2584 15.9254 55.6167 16.246C49.408 16.8454 45.1446 18.4112 45.0056 24.2608C45.0056 29.6505 49.0832 32.3685 54.9682 31.9074C61.594 31.4428 65.6716 28.4529 65.6716 21.7263V13.4374C65.5314 8.92237 62.1023 6.71191 55.3374 6.71191V6.71191ZM59.6931 21.4533C59.6931 24.9078 57.6076 26.9347 54.1796 26.9347C52.2331 26.9347 51.2143 26.0136 51.0752 24.0784C51.0752 22.2815 52.3266 21.1304 54.7825 20.6693C56.462 20.3356 58.1052 19.842 59.6896 19.1952V21.4521L59.6931 21.4533ZM78.7434 12.0958C80.6899 12.0958 81.9868 12.9716 82.7287 14.6291H89.4468C88.3813 9.33125 84.8598 6.70611 78.9315 6.70611C71.3792 6.84434 67.6252 11.0364 67.6252 19.3741C67.811 27.7583 71.6105 31.9957 79.0238 31.9957C84.7231 32.1339 88.3369 28.9559 89.4491 23.9809H84.8131C84.0251 23.9741 83.2698 24.293 82.7275 24.8613C81.7087 26.0125 80.4574 26.6118 79.0203 26.6118C75.5912 26.6583 73.8795 24.2167 73.8795 19.3799C73.8795 14.5432 75.5 12.0958 78.7434 12.0958ZM103.98 16.9743L112.498 6.94071H108.252C107.636 6.93927 107.025 7.05193 106.45 7.27292C105.548 7.61412 104.741 8.16447 104.096 8.8782C103.456 9.51474 97.4466 16.6026 97.4466 16.6026V3.11917C97.4466 1.50692 96.103 0.124657 94.4813 0.124657H91.2496V31.4938H97.442V22.5579C97.442 21.9133 97.7668 21.4986 98.4152 21.3604C99.2027 21.3604 99.9906 22.0515 100.779 23.4338L105.135 31.495H112.548L103.98 16.9743ZM21.2479 6.94072H17.0021C15.315 6.94072 13.9912 7.74104 12.8474 8.87821C12.2071 9.51475 6.19819 16.6026 6.19819 16.6026V3.11917C6.19819 1.50692 4.85457 0.124657 3.23287 0.124657H0V31.4939H6.19235V22.558C6.19235 21.9133 6.51716 21.4986 7.1656 21.3604C7.95308 21.3604 8.74095 22.0515 9.52921 23.4338L13.8837 31.4939H21.297L12.7259 16.9848L21.2479 6.94072Z"
    fill="#333"></path>
</svg>
